<?xml version="1.0" encoding="UTF-8" standalone="no"?>
<!-- Created with Inkscape (http://www.inkscape.org/) -->

<svg
   xmlns:dc="http://purl.org/dc/elements/1.1/"
   xmlns:cc="http://creativecommons.org/ns#"
   xmlns:rdf="http://www.w3.org/1999/02/22-rdf-syntax-ns#"
   xmlns:svg="http://www.w3.org/2000/svg"
   xmlns="http://www.w3.org/2000/svg"
   xmlns:sodipodi="http://sodipodi.sourceforge.net/DTD/sodipodi-0.dtd"
   xmlns:inkscape="http://www.inkscape.org/namespaces/inkscape"
   width="256"
   height="256"
   id="svg3051"
   version="1.1"
   inkscape:version="0.48.4 r9939"
   sodipodi:docname="07.svg">
  <defs
     id="defs3053" />
  <sodipodi:namedview
     id="base"
     pagecolor="#ffffff"
     bordercolor="#666666"
     borderopacity="1.0"
     inkscape:pageopacity="0.0"
     inkscape:pageshadow="2"
     inkscape:zoom="2"
     inkscape:cx="131.32467"
     inkscape:cy="132.10142"
     inkscape:document-units="px"
     inkscape:current-layer="layer1"
     showgrid="false"
     inkscape:window-width="1280"
     inkscape:window-height="758"
     inkscape:window-x="0"
     inkscape:window-y="0"
     inkscape:window-maximized="1">
    <inkscape:grid
       type="xygrid"
       id="grid3061"
       empspacing="5"
       visible="true"
       enabled="true"
       snapvisiblegridlinesonly="true" />
  </sodipodi:namedview>
  <metadata
     id="metadata3056">
    <rdf:RDF>
      <cc:Work
         rdf:about="">
        <dc:format>image/svg+xml</dc:format>
        <dc:type
           rdf:resource="http://purl.org/dc/dcmitype/StillImage" />
        <dc:title></dc:title>
      </cc:Work>
    </rdf:RDF>
  </metadata>
  <g
     inkscape:label="Layer 1"
     inkscape:groupmode="layer"
     id="layer1"
     transform="translate(0,-796.36218)">
    <rect
       style="fill:#042c5a;fill-opacity:1;fill-rule:nonzero;stroke:#042c5a;stroke-width:4.92307711;stroke-linejoin:miter;stroke-miterlimit:5;stroke-opacity:1;stroke-dasharray:none"
       id="rect3067"
       width="251.07692"
       height="251.07692"
       x="2.4615386"
       y="798.82373" />
    <g
       id="g3918"
       transform="matrix(-0.99648336,-0.99713246,0.99648336,-0.99713246,-875.12069,2014.7784)">
      <path
         style="fill:#000000;fill-opacity:1;fill-rule:nonzero;stroke:#000000;stroke-width:1.60000002;stroke-linejoin:miter;stroke-miterlimit:5;stroke-opacity:1;stroke-dasharray:none"
         d="m 43.726903,939.20218 c -0.868645,-0.0495 -3.481572,1.79957 -20.84,14.2 -11.221725,8.01653 -20.6879996,14.81102 -21.0399996,15.08 -0.575179,0.43954 3.626936,0.47085 41.5599996,0.48 l 42.200001,0 -20.400001,-14.56 c -11.230829,-8.02259 -20.750195,-14.81148 -21.16,-15.08 -0.09056,-0.0594 -0.195908,-0.11289 -0.32,-0.11993 z m -18.68,31.36 0,28 0,28.00002 18.4,0 18.4,0 0,-28.00002 0,-28 -18.4,0 -18.4,0 z"
         id="path3912"
         inkscape:connector-curvature="0" />
    </g>
    <g
       transform="matrix(0.99713248,-0.99648338,0.99713248,0.99648338,-962.41584,-78.758928)"
       id="g3925">
      <path
         inkscape:connector-curvature="0"
         id="path3927"
         d="m 43.726903,939.20218 c -0.868645,-0.0495 -3.481572,1.79957 -20.84,14.2 -11.221725,8.01653 -20.6879996,14.81102 -21.0399996,15.08 -0.575179,0.43954 3.626936,0.47085 41.5599996,0.48 l 42.200001,0 -20.400001,-14.56 c -11.230829,-8.02259 -20.750195,-14.81148 -21.16,-15.08 -0.09056,-0.0594 -0.195908,-0.11289 -0.32,-0.11993 z m -18.68,31.36 0,28 0,28.00002 18.4,0 18.4,0 0,-28.00002 0,-28 -18.4,0 -18.4,0 z"
         style="fill:#000000;fill-opacity:1;fill-rule:nonzero;stroke:#000000;stroke-width:1.60000002;stroke-linejoin:miter;stroke-miterlimit:5;stroke-opacity:1;stroke-dasharray:none" />
    </g>
    <g
       id="g3929"
       transform="matrix(0.99648338,0.99713248,-0.99648338,0.99713248,1131.1211,-166.05365)">
      <path
         style="fill:#000000;fill-opacity:1;fill-rule:nonzero;stroke:#000000;stroke-width:1.60000002;stroke-linejoin:miter;stroke-miterlimit:5;stroke-opacity:1;stroke-dasharray:none"
         d="m 43.726903,939.20218 c -0.868645,-0.0495 -3.481572,1.79957 -20.84,14.2 -11.221725,8.01653 -20.6879996,14.81102 -21.0399996,15.08 -0.575179,0.43954 3.626936,0.47085 41.5599996,0.48 l 42.200001,0 -20.400001,-14.56 c -11.230829,-8.02259 -20.750195,-14.81148 -21.16,-15.08 -0.09056,-0.0594 -0.195908,-0.11289 -0.32,-0.11993 z m -18.68,31.36 0,28 0,28.00002 18.4,0 18.4,0 0,-28.00002 0,-28 -18.4,0 -18.4,0 z"
         id="path3931"
         inkscape:connector-curvature="0" />
    </g>
    <g
       transform="matrix(-0.99713248,0.99648338,-0.99713248,-0.99648338,1218.4158,1927.4833)"
       id="g3933">
      <path
         inkscape:connector-curvature="0"
         id="path3935"
         d="m 43.726903,939.20218 c -0.868645,-0.0495 -3.481572,1.79957 -20.84,14.2 -11.221725,8.01653 -20.6879996,14.81102 -21.0399996,15.08 -0.575179,0.43954 3.626936,0.47085 41.5599996,0.48 l 42.200001,0 -20.400001,-14.56 c -11.230829,-8.02259 -20.750195,-14.81148 -21.16,-15.08 -0.09056,-0.0594 -0.195908,-0.11289 -0.32,-0.11993 z m -18.68,31.36 0,28 0,28.00002 18.4,0 18.4,0 0,-28.00002 0,-28 -18.4,0 -18.4,0 z"
         style="fill:#000000;fill-opacity:1;fill-rule:nonzero;stroke:#000000;stroke-width:1.60000002;stroke-linejoin:miter;stroke-miterlimit:5;stroke-opacity:1;stroke-dasharray:none" />
    </g>
  </g>
</svg>
